<?xml version="1.0" encoding="UTF-8"?><svg id="Layer_2" xmlns="http://www.w3.org/2000/svg" viewBox="0 0 23.75 23.75"><defs><style>.cls-1{fill:#fff;}</style></defs><g id="Layer_1-2"><path id="crosshair_plus" class="cls-1" d="M21.78,13.95c-.82,3.93-3.89,7-7.82,7.82-.03,0-.05,0-.08,0-.17,0-.33-.12-.37-.3-.04-.2.09-.4.29-.44,3.64-.76,6.48-3.61,7.24-7.24.04-.2.23-.33.44-.29.2.04.33.24.29.44ZM9.95,21.04c-3.64-.76-6.48-3.61-7.24-7.24-.04-.2-.24-.33-.44-.29-.2.04-.33.24-.29.44.82,3.93,3.89,7,7.82,7.82.03,0,.05,0,.08,0,.17,0,.33-.12.37-.3.04-.2-.09-.4-.29-.44ZM2.26,10.24s.05,0,.08,0c.17,0,.33-.12.37-.3.76-3.64,3.61-6.48,7.24-7.24.2-.04.33-.24.29-.44-.04-.2-.23-.33-.44-.29-3.93.82-7,3.89-7.82,7.82-.04.2.09.4.29.44ZM13.8,2.71c3.64.76,6.48,3.6,7.24,7.24.04.18.19.3.37.3.03,0,.05,0,.08,0,.2-.04.33-.24.29-.44-.82-3.93-3.89-7-7.82-7.82-.21-.05-.4.09-.44.29-.04.2.09.4.29.44ZM4.34,13.63c-.13.04-.21.17-.18.31.73,2.75,2.9,4.91,5.65,5.65.02,0,.04,0,.06,0,.11,0,.21-.07.24-.19.04-.13-.04-.27-.18-.31-2.58-.69-4.61-2.72-5.29-5.29-.04-.13-.17-.21-.31-.18ZM10.12,4.34c-.03-.13-.17-.21-.31-.18-2.75.73-4.91,2.9-5.65,5.65-.04.13.04.27.18.31.02,0,.04,0,.06,0,.11,0,.21-.07.24-.19.69-2.58,2.72-4.61,5.29-5.29.13-.04.21-.17.18-.31ZM19.35,10.12s.04,0,.06,0c.13-.04.21-.17.18-.31-.74-2.75-2.9-4.91-5.65-5.65-.13-.03-.27.04-.31.18-.04.13.04.27.18.31,2.58.69,4.61,2.72,5.29,5.29.03.11.13.19.24.19ZM13.63,19.41c.03.11.13.19.24.19.02,0,.04,0,.06,0,2.75-.74,4.91-2.9,5.65-5.65.04-.13-.04-.27-.18-.31-.13-.04-.27.04-.31.18-.69,2.58-2.72,4.61-5.29,5.29-.13.04-.21.17-.18.31ZM6.5,11.88c0-.41-.34-.75-.75-.75H.75c-.41,0-.75.34-.75.75s.34.75.75.75h5c.41,0,.75-.34.75-.75ZM11.88,17.25c-.41,0-.75.34-.75.75v5c0,.41.34.75.75.75s.75-.34.75-.75v-5c0-.41-.34-.75-.75-.75ZM23,11.12h-5c-.41,0-.75.34-.75.75s.34.75.75.75h5c.41,0,.75-.34.75-.75s-.34-.75-.75-.75ZM11.88,6.5c.41,0,.75-.34.75-.75V.75c0-.41-.34-.75-.75-.75s-.75.34-.75.75v5c0,.41.34.75.75.75ZM14.88,12.62c.41,0,.75-.34.75-.75s-.34-.75-.75-.75h-2.25v-2.25c0-.41-.34-.75-.75-.75s-.75.34-.75.75v2.25h-2.25c-.41,0-.75.34-.75.75s.34.75.75.75h2.25v2.25c0,.41.34.75.75.75s.75-.34.75-.75v-2.25h2.25Z"/></g></svg>