<?xml version="1.0" encoding="UTF-8"?><svg id="Layer_2" xmlns="http://www.w3.org/2000/svg" viewBox="0 0 23.75 23.75"><defs><style>.cls-1{fill:#fff;}</style></defs><g id="Layer_1-2"><path id="crosshair_pointer" class="cls-1" d="M13.87,21.78c-.17,0-.33-.12-.37-.3-.04-.2.09-.4.29-.44,3.64-.76,6.48-3.61,7.24-7.24.04-.2.24-.33.44-.29.2.04.33.24.29.44-.82,3.93-3.89,7-7.82,7.82-.03,0-.05,0-.08,0ZM10.24,21.49c.04-.2-.09-.4-.29-.44-3.64-.76-6.48-3.61-7.24-7.24-.04-.2-.23-.33-.44-.29-.2.04-.33.24-.29.44.82,3.93,3.89,7,7.82,7.82.03,0,.05,0,.08,0,.17,0,.33-.12.37-.3ZM2.71,9.95c.76-3.64,3.6-6.48,7.24-7.24.2-.04.33-.24.29-.44-.04-.2-.24-.33-.44-.29-3.93.82-7,3.89-7.82,7.82-.04.2.09.4.29.44.03,0,.05,0,.08,0,.17,0,.33-.12.37-.3ZM21.48,10.24c.2-.04.33-.24.29-.44-.82-3.93-3.89-7-7.82-7.82-.21-.05-.4.09-.44.29-.04.2.09.4.29.44,3.64.76,6.48,3.6,7.24,7.24.04.18.19.3.37.3.03,0,.05,0,.08,0ZM10.12,19.41c.04-.13-.04-.27-.18-.31-2.58-.69-4.61-2.72-5.29-5.29-.04-.13-.17-.21-.31-.18-.13.04-.21.17-.18.31.73,2.75,2.9,4.91,5.65,5.65.02,0,.04,0,.06,0,.11,0,.21-.07.24-.19ZM4.65,9.94c.69-2.58,2.72-4.61,5.29-5.29.13-.04.21-.17.18-.31-.04-.13-.17-.21-.31-.18-2.75.73-4.91,2.9-5.65,5.65-.04.13.04.27.18.31.02,0,.04,0,.06,0,.11,0,.21-.07.24-.19ZM19.41,10.12c.13-.04.21-.17.18-.31-.73-2.75-2.9-4.91-5.65-5.65-.13-.03-.27.04-.31.18-.04.13.04.27.18.31,2.58.69,4.61,2.72,5.29,5.29.03.11.13.19.24.19.02,0,.04,0,.06,0ZM13.94,19.59c2.75-.74,4.91-2.9,5.65-5.65.04-.13-.04-.27-.18-.31-.13-.04-.27.04-.31.18-.69,2.58-2.72,4.61-5.29,5.29-.13.04-.21.17-.18.31.03.11.13.19.24.19.02,0,.04,0,.06,0ZM6.5,11.88c0-.41-.34-.75-.75-.75H.75c-.41,0-.75.34-.75.75s.34.75.75.75h5c.41,0,.75-.34.75-.75ZM12.62,23v-5c0-.41-.34-.75-.75-.75s-.75.34-.75.75v5c0,.41.34.75.75.75s.75-.34.75-.75ZM23.75,11.88c0-.41-.34-.75-.75-.75h-5c-.41,0-.75.34-.75.75s.34.75.75.75h5c.41,0,.75-.34.75-.75ZM12.62,5.75V.75c0-.41-.34-.75-.75-.75s-.75.34-.75.75v5c0,.41.34.75.75.75s.75-.34.75-.75ZM12.83,16.28l1.22-.53c.16-.1.17-.28.08-.43l-.95-2.27h1.71s.15-.08.17-.1c.14-.15.14-.37,0-.52l-4.79-4.86c-.21-.18-.5-.09-.59.16v6.86c.08.22.31.31.52.21l1.29-1.12,1.04,2.43c.04.09.11.12.19.16h.12ZM12.72,12.49c-.15,0-.28.22-.22.36l1.06,2.51-.64.26-1.06-2.52c-.11-.19-.29-.22-.46-.09l-1.17,1.04v-5.76l4.13,4.19h-1.62Z"/></g></svg>